<svg id="Capa_1" data-name="Capa 1" xmlns="http://www.w3.org/2000/svg" xmlns:xlink="http://www.w3.org/1999/xlink" width="2001.96" height="1546.91" viewBox="0 0 2001.96 1546.91">
  <defs>
    <linearGradient id="Degradado_sin_nombre_2" data-name="Degradado sin nombre 2" x1="-292.65" y1="2081.67" x2="1025.48" y2="2081.67" gradientTransform="matrix(1, 0, 0, -1, 572.5, 2911.5)" gradientUnits="userSpaceOnUse">
      <stop offset="0" stop-color="#e21f26"/>
      <stop offset="0.06" stop-color="#e74d25"/>
      <stop offset="0.18" stop-color="#ef8422"/>
      <stop offset="0.24" stop-color="#f3981f"/>
      <stop offset="1" stop-color="#ffce1e"/>
    </linearGradient>
  </defs>
  <title>Mall_Aventura</title>
  <g>
    <path id="_Trazado_2" data-name=" Trazado 2" d="M615.34,1417.6s-679.2-207.07-728.9-737.18C-128.64,519.55,14.3,218.19,226,75.77,706.45-247.3,1283.85-147.67,1601,92.33c94.89,71.81,227.2,219,265,389.3,82.83,372.73-49.7,836.58-861.43,728.9-59.36-7.87-227.52,5-265,16.57C589,1273.65,615.34,1417.6,615.34,1417.6Z" transform="translate(114.65 129.32)" style="fill: #ff141e"/>
    <path d="M309.36,860.7ZM458.26,858c-41.39,4.76-9.23,1.49,0,0m726-62.1c-49.43.86-98.57,2-146.51,3.71-48,1.1-97.08,2.48-146.51,4.81C593.15,815,313,850.7,279.85,858.11c1.49-.29,158.72-22.56,335.61-36.55,146.8-12.55,304.93-18.55,366.87-20q-36.18,1.72-70.58,3.43c-65.51,2.86-156.93,7.71-247.46,14.85-31.27,2.28-62.54,5.14-92.31,8A171.32,171.32,0,0,0,553.85,829h5.26C430.3,841.35,323.92,856,308.3,860.33c1.5-.29,216.64-21.84,338.3-33.61l-173.5,22.7c-60.52,7.19-100.38,12.93-114.77,16.1,3.59-.57,96.79-12.93,130-15.51h-.18l-45.34,6c17-1.71,34-3.44,51.32-5.15l4.77.86c-15.51,2-30.42,4.29-41.47,6,11-1.14,26.55-4.29,48.93-6.29l20.29-2C720.66,828.51,894,825.93,1039,820.5c178.12-1.14,413.51.86,549.27,15.74,0,0,4.77-3.15,6.56-6,3.88-5.72,4.18-11.73.89-17.74-1.79-3.72-6-7.15-7.46-7.73a45.35,45.35,0,0,0-5.07-1.14c-12.88-.86-4.18-1.48-4.18-1.48-23.58-1.14-33.71-.57-59.67-1.43l4.77-.29c-8.4-.28-13.47-.28-18.24-.28-30.13-1.14-61.46-2-93.08-2.58-91.29-2-182.89-1.43-248.83-.57l-70.85.86c45-1.71,155.74-3.71,152.77-3.71-1.19.57-18.46.86-61.64,1.71" transform="translate(114.65 129.32)" style="fill: url(#Degradado_sin_nombre_2)"/>
    <path d="M309.36,860.7ZM458.26,858c-41.39,4.76-9.23,1.49,0,0m726-62.1c-49.43.86-98.57,2-146.51,3.71-48,1.1-97.08,2.48-146.51,4.81C593.15,815,313,850.7,279.85,858.11c1.49-.29,158.72-22.56,335.61-36.55,146.8-12.55,304.93-18.55,366.87-20q-36.18,1.72-70.58,3.43c-65.51,2.86-156.93,7.71-247.46,14.85-31.27,2.28-62.54,5.14-92.31,8A171.32,171.32,0,0,0,553.85,829h5.26C430.3,841.35,323.92,856,308.3,860.33c1.5-.29,216.64-21.84,338.3-33.61l-173.5,22.7c-60.52,7.19-100.38,12.93-114.77,16.1,3.59-.57,96.79-12.93,130-15.51h-.18l-45.34,6c17-1.71,34-3.44,51.32-5.15l4.77.86c-15.51,2-30.42,4.29-41.47,6,11-1.14,26.55-4.29,48.93-6.29l20.29-2C720.66,828.51,894,825.93,1039,820.5c178.12-1.14,413.51.86,549.27,15.74,0,0,4.77-3.15,6.56-6,3.88-5.72,4.18-11.73.89-17.74-1.79-3.72-6-7.15-7.46-7.73a45.35,45.35,0,0,0-5.07-1.14c-12.88-.86-4.18-1.48-4.18-1.48-23.58-1.14-33.71-.57-59.67-1.43l4.77-.29c-8.4-.28-13.47-.28-18.24-.28-30.13-1.14-61.46-2-93.08-2.58-91.29-2-182.89-1.43-248.83-.57l-70.85.86c45-1.71,155.74-3.71,152.77-3.71-1.19.57-18.46.86-61.64,1.71" transform="translate(114.65 129.32)" style="fill: none"/>
    <path d="M1148,490.54c-14.39.4-29.59.4-45.19.4-.4-16-.4-34.41-.8-54.81,0-20.4-.4-44.81-.4-72.81,0-14.8.4-28.8.8-42.81.77-13.54,1.18-27.45,1.92-41.74l-2.13-1.66c-6.61,2-10.16,1.78-15.51,1.8a51,51,0,0,1-7.61-.53c-2.42-.36-4.62-.71-7.47-1,.8,14.8,1.2,29.2,1.6,43.21.8,14,.8,28.4.8,42.81v57.19c0,14.8-.4,29.2-.8,43.21s-.8,28-1.6,42c10.8-.4,20.79-.8,30.44-.8h61.19c10,0,20.39.4,30.44.8a27.44,27.44,0,0,1-1.6-8.8,34.2,34.2,0,0,1,1.6-10q-24,3-45.59,3.6" transform="translate(114.65 129.32)" style="fill: #fff"/>
    <path d="M997.93,490.64c-14.19.4-29.17.4-44.55.4-.39-16-.39-34.41-.79-54.81s-.39-44.81-.39-72.81c0-14.8.39-28.8.79-42.81.76-13.53,1.16-27.44,1.89-41.72l-2.12-1.68C946.65,279,943.15,279,938.4,279a63.57,63.57,0,0,1-9.14-.64l-6.63-1c.79,14.8,1.18,29.2,1.58,43.21.79,14,.79,28.4.79,42.81v57.21c0,14.8-.39,29.2-.79,43.21s-.79,28-1.58,42c10.25-.4,20.5-.8,30-.8h60.31c9.86,0,20.1.4,30,.8a27.78,27.78,0,0,1-1.58-8.8,34.65,34.65,0,0,1,1.58-10q-23.65,3-44.94,3.6" transform="translate(114.65 129.32)" style="fill: #fff"/>
    <path d="M884.63,478.52c-4.74-10-9.87-21.64-15.4-34.45Q861,424.25,851.46,402l-19-45.67c-6.27-15.2-12.62-30.42-18.5-45.24-6.32-15.23-11.85-29.25-17-42.06h-6.32c-17,39.65-34,78.92-50.92,117-17,38.46-34,76.91-51.71,115.79a111,111,0,0,1,12.24-.8,117.84,117.84,0,0,1,12.24.8c2.76-10,7.11-23.23,12.64-38.46,5.53-15.63,11.85-32.45,19-49.67,6.71-.4,13.43-.4,20.14-.4,6.71-.4,13.43-.4,20.14-.4,7.11,0,14.61,0,21.72.4,7.11,0,14.22,0,21.32.4,2.76,7.21,5.92,15.23,9.08,23.23L846,460.94c3.16,7.61,6.32,15.23,8.69,22.44,2.76,7.21,4.74,13.22,6.32,18.43a69.89,69.89,0,0,1,8.69-.8H887a63.64,63.64,0,0,1,8.69.8C892.95,496.55,888.95,488.54,884.63,478.52ZM804.08,401H785.55c-5.52,0-11.43,0-17.74-.4s-11.83-.4-17.74-.4l35.48-84.41,36.3,84.41C816.3,400.65,810,401,804.08,401Z" transform="translate(114.65 129.32)" style="fill: #fff"/>
    <path d="M643.63,341c-2.37-19.2-4.34-38.81-6.7-58.41-2-20-4.34-40.41-6.7-61.61h-.55s-11.8,21.55-18.31,33.52-13,24.37-19.94,37.17c-6.51,12.39-13,25.19-19.53,37.17S559.69,352.4,554,362.72s-10.59,19.86-15,28.12c-4.07,7.85-7.73,14-9.77,18.58q-26.25-48.32-50-94.16c-16-30.56-46.91-93.26-46.91-93.26h-5.71s-4.07,36.76-6.51,57-5.25,40.46-8.13,61.51c-2.85,20.64-6.1,41.29-9,61.93-3.26,20.64-12.61,90-15.46,108.58a224.93,224.93,0,0,1,23.59,0c0-9.09,6.92-70.6,8.14-85s2.44-29.72,4.07-45.42c1.63-16.1,3.26-32.61,4.88-49.12,2-16.51,5.29-46.47,5.29-46.47h4C452,314,466,342.46,480,370.19s27.72,55.07,41,82.81h2.74q19.33-44.56,41-85.56c14.46-27.37,29.29-55.1,44.08-82.44h1.63c3.55,28.8,6.31,56.81,8.67,84.81,2.37,27.6,11,104.42,13.4,134,2.76-.4,28-.4,30.75,0-2.76-18.4-11-85.21-13.4-104-2-18.8-4.34-37.61-6.31-56.81" transform="translate(114.65 129.32)" style="fill: #fff"/>
    <path d="M205.33,766.92q31-68.36,55.93-124.83T307.65,535H314q23.11,58.47,47.12,116.45t48.78,115.47q-4.36-.72-8.33-1.18a69.55,69.55,0,0,0-7.84-.45q-3.88,0-8,.41t-8.83,1.22q-5.85-18.23-12.92-37.19t-15.19-38.5l-5.66-13.35q-7.27-.32-15.6-.49t-25.14-.16q-17.14,0-25.54.16t-15.52.49q-7.92,18.39-16.08,39.63t-18,49.4a40.71,40.71,0,0,0-5.5-1.22,37.66,37.66,0,0,0-5.5-.41,35.54,35.54,0,0,0-5.17.41A46.87,46.87,0,0,0,205.33,766.92ZM266.92,663.7q1.77,0,10.18.16T292,664q5,0,19.88-.16t24.57-.16L330.76,649q-1.29-3.58-6.87-17t-21.58-51Z" transform="translate(114.65 129.32)" style="fill: #fff"/>
    <path d="M480.58,767.25q-22.23-58.18-41.6-107t-37.23-91q3.4.57,6.87.85t7.43.28q4,0,7.5-.28a65.78,65.78,0,0,0,6.65-.85q14.58,40.63,30.93,82.88t34.6,86.47q17.84-43.32,34-85.64T560,569.26a36.46,36.46,0,0,0,4.6.85,41.46,41.46,0,0,0,5,.28,46.51,46.51,0,0,0,5.27-.2,31.29,31.29,0,0,0,4.6-.85q-20.2,47.85-40,97.13T499.85,767.25c-1.8-.38-3.47-.68-5-.92a29.57,29.57,0,0,0-9.2,0Q483.27,766.7,480.58,767.25Z" transform="translate(114.65 129.32)" style="fill: #fff"/>
    <path d="M594.78,767.2q1.4-18.26,2-42.68T597.4,666q0-31.43-.62-54.92t-2-41.9q6.35.29,13.81.42t23.41.14q20.67,0,36.7-.14t32.57-.42q0,1.28-.15,4.11c-.1,1.89-.15,3.35-.15,4.39,0,.85,0,2.22.15,4.11s.15,3.3.15,4.25q-17.14-1.43-35.14-2.14c-12-.47-24.15-.71-36.45-.89h-7.23c-.1,11.41-.17,22.13-.22,32.31s-.23,29-.23,29V656h5.48c9.15-.08,19.26-.29,30.33-.72s22.85-1,35.32-1.6q-.3,3.12-.45,5.1t-.15,3.82q0,1.56.15,3.4t.45,4.67a146.26,146.26,0,0,0-18-1.78c-7.23-.33-20.23-.49-39-.89H623v14.27s-.85,29.94-.8,40.27.12,20.49.22,30.46H630q13,.06,31.72-.81t40.73-2.41q0,1.42-.15,4.32c-.1,1.94-.15,3.43-.15,4.46s0,2.39.15,4.32.15,3.38.15,4.32q-8.57-.28-19.13-.42t-32.57-.14q-22.46,0-34.12.14T594.78,767.2Z" transform="translate(114.65 129.32)" style="fill: #fff"/>
    <path d="M730.25,767Q732,727.87,733,685.09t1-89.32V565h5.21q30.18,36.09,63.1,72.58t74.9,80.19q0-1.41.15-4.4.46-14.9.46-21.14,0-35.08-.61-66.62t-1.85-56.83q3.79.57,5.68.78a30.16,30.16,0,0,0,3.44.21,33.08,33.08,0,0,0,3.65-.21q2-.21,5.33-.78-1.2,33.22-1.87,67.07T890.93,705q0,12.77.14,27.39T891.5,771h-3.57q-12.9-16.55-30.54-37T816,687.85l-68-74.07q-.15,3.26-.54,16.59t-.38,21.4q0,17.72.61,45.3t1.85,70a42,42,0,0,0-4.94-1,35.57,35.57,0,0,0-4.66-.32,29.84,29.84,0,0,0-4.52.36Z" transform="translate(114.65 129.32)" style="fill: #fff"/>
    <path d="M973.27,767.2q.91-35.81,1.37-69.85c.31-22.69.47-44.75.36-66.18V582h-8.25c-12.35.76-23.3,1.07-32.86,1.68a242.68,242.68,0,0,0-24.36,2.62q.3-2.83.46-4.67t.15-3.4q0-1.7-.15-3.75t-.46-5.31q17.76.42,36.19.63t38,.21q19.88,0,40.45-.25t42.26-.59a21,21,0,0,0-.46,3q-.16,1.71-.15,5.42t.15,5.35a31.24,31.24,0,0,0,.46,3.35,225.8,225.8,0,0,0-24-2.69c-8.91-.57-19.24-.85-31-.6h-9.11c-.51,8.1-.89,17.38-1.14,27.71s-.38,22.67-.38,37q0,27.6.46,57.61t1.37,61.86q-3.49-.42-7-.64t-7.28-.21q-3.49,0-7.28.21T973.27,767.2Z" transform="translate(114.65 129.32)" style="fill: #fff"/>
    <path d="M1074.67,569.36a60.47,60.47,0,0,0,6,.85q3.09.29,6.61.28a69.74,69.74,0,0,0,7.45-.35q3.23-.35,6.19-.92-.57,37.09-.84,66.25t-.24,39.23q0,26.75,3.31,40.42a56.06,56.06,0,0,0,11,23,50.15,50.15,0,0,0,20,14.58,70.53,70.53,0,0,0,27.28,5,69.64,69.64,0,0,0,27.42-5.24,49.94,49.94,0,0,0,20.11-15q7.73-9.77,10.9-24.91T1223,660q0-24.77-.28-47.21t-.81-43.53a31.9,31.9,0,0,0,4.29.85,35.28,35.28,0,0,0,4.57.28,37,37,0,0,0,5.13-.32q2.31-.32,4.43-.81-.71,17.41-1,31.86t-.35,21v7.5q0,55.35-2.67,75.45t-9.15,31.6a64.23,64.23,0,0,1-27.64,25.83q-17.65,8.71-42.68,8.71-42.75,0-62.44-20.88t-19.68-66.49q0-1.7.63-21.66t.63-38.08q0-13.59-1-46.85Q1074.81,572,1074.67,569.36Z" transform="translate(114.65 129.32)" style="fill: #fff"/>
    <path d="M1274.25,767.39q.92-15.29,1.39-35t.46-63.84q0-37.51-.46-60.23t-1.54-39a27.08,27.08,0,0,0,3.08.14q8.62.42,11.55.42,5.85,0,22.64-.57t27.72-.57q35.72,0,53.36,11.68t17.63,35.32q0,20.53-16.4,34.54T1347,669.44q22.48,27.46,79.77,92.43l4.77,5.52q-5.24-.7-9.86-1.06t-9.09-.36q-4.32,0-8.78.39t-9.55,1q-12.16-16.29-21.63-28.43T1355,717l-34.49-40.63a16.77,16.77,0,0,0-5.54-4.88A15.09,15.09,0,0,0,1308,670a45.16,45.16,0,0,0-5.24.42,4.74,4.74,0,0,1-.77.14V723.7q0,9.77.46,20.67t1.23,23.07q-4.16-.7-7.7-1.06a68.48,68.48,0,0,0-6.93-.36q-3.39,0-7.08.36T1274.25,767.39ZM1302,661.51a39,39,0,0,0,4.24.36q2.22.07,6.08.07,35.41,0,52.89-10.62t17.49-32.13q0-19.53-13.63-29.44t-40.58-9.91q-4.93,0-19.4.85-3.39.15-5.24.28-.92,6.52-1.39,13.73t-.46,15.85v51Z" transform="translate(114.65 129.32)" style="fill: #fff"/>
    <path d="M1414.64,767.69q27.66-59.45,49.84-108.57T1505.85,566h5.62q20.6,50.86,42,101.28t43.38,100.41q-3.89-.62-7.42-1a63.85,63.85,0,0,0-7-.39q-3.46,0-7.13.36c-2.44.23-5.07.59-7.85,1.06q-5.17-15.88-11.48-32.38t-13.57-33.47l-5-11.61q-6.48-.28-13.9-.42t-22.4-.14q-15.27,0-22.76.14t-13.83.42q-7.06,16-14.33,34.47t-16.06,43a36.69,36.69,0,0,0-4.9-1.06,34.44,34.44,0,0,0-4.9-.36,32.49,32.49,0,0,0-4.61.36A42.13,42.13,0,0,0,1414.64,767.69Zm54.88-90.5q1.58,0,9.08.14t13.25.14q4.46,0,17.72-.14t21.9-.14l-5-12.74q-1.15-3.11-6.12-14.79t-19.23-44.38Z" transform="translate(114.65 129.32)" style="fill: #fff"/>
  </g>
</svg>
